<?xml version="1.0" encoding="utf-8"?>
<!-- Generator: Adobe Illustrator 16.0.0, SVG Export Plug-In . SVG Version: 6.00 Build 0)  -->
<!DOCTYPE svg PUBLIC "-//W3C//DTD SVG 1.1//EN" "http://www.w3.org/Graphics/SVG/1.1/DTD/svg11.dtd">
<svg version="1.1" id="Layer_1" xmlns="http://www.w3.org/2000/svg" xmlns:xlink="http://www.w3.org/1999/xlink" x="0px" y="0px"
	 width="20px" height="20px" viewBox="0 0 20 20" enable-background="new 0 0 20 20" xml:space="preserve">
<g id="Layer_1_1_" display="none">
	<polygon display="inline" fill="none" stroke="#000000" points="5.5,1.5 15.5,1.5 15.5,17.5 10.5,12.5 5.5,17.5 	"/>
</g>
<g id="Layer_2" display="none">
	<g display="inline">
		<g>
			<path d="M2.367,7.247c0-0.262,0.256-0.479,0.565-0.479h9.046c0.311,0,0.565,0.217,0.565,0.479v1.436h1.414
				c0.315,0,0.74,0.149,0.963,0.336l1.748,1.48c0.485,0.412,0.397,1.002,0.397,1.533v2.393c0.31,0,0.564,0.218,0.564,0.479
				c0,0.554-0.689,0.479-1.131,0.479h-0.564c0,1.055-1.016,1.914-2.262,1.914s-2.262-0.859-2.262-1.914H8.021
				c0,1.055-1.016,1.914-2.262,1.914c-1.246,0-2.262-0.859-2.262-1.914c-0.442,0-1.131,0.075-1.131-0.479L2.367,7.247L2.367,7.247z
				 M4.628,15.382c0,0.523,0.512,0.957,1.131,0.957c0.619,0,1.131-0.434,1.131-0.957c0-0.522-0.512-0.957-1.131-0.957
				C5.14,14.425,4.628,14.857,4.628,15.382z M15.938,11.555v-0.226c0-0.029-0.053-0.142-0.08-0.164l-1.723-1.458
				c-0.027-0.022-0.158-0.067-0.195-0.067h-1.395v1.915H15.938z M12.545,15.382c0,0.523,0.512,0.957,1.131,0.957
				c0.617,0,1.131-0.434,1.131-0.957c0-0.522-0.514-0.957-1.131-0.957C13.057,14.425,12.545,14.857,12.545,15.382z"/>
		</g>
	</g>
</g>
<g id="Layer_3" display="none">
	<g display="inline">
		<g>
			<g>
				<polygon points="8.97,8.351 11.208,9.089 11.208,7.991 9.016,7.085 				"/>
				<polygon points="8.608,8.242 8.649,6.96 6.086,6.047 6.086,7.463 				"/>
				<polygon points="8.583,8.601 6.086,7.83 6.086,9.244 8.454,9.91 				"/>
				<polygon points="8.945,8.711 8.825,10.009 11.208,10.701 11.208,9.459 				"/>
			</g>
			<polygon points="5.767,5.763 5.767,9.089 1.284,8.711 1.284,6.992 			"/>
			<polygon points="16.012,11.313 14.091,10.113 14.091,10.99 16.012,12.066 			"/>
			<polygon points="13.973,10.01 11.527,8.711 11.527,9.83 13.882,10.918 			"/>
			<path d="M13.964,11.068l-2.33-1.059l0.056,0.795c1.229,0.476,1.502,0.674,2.254,0.992L13.964,11.068z"/>
			<path d="M16.091,12.207l-2-1.045v0.691c0.638,0.313,1.365,0.738,2.007,1.116L16.091,12.207z"/>
			<path d="M5.963,15.455c0,0,1.111-0.1,1.555-0.598c0,0,0.54,0.943,1.411,1.021c0.871,0.078,0,0.156,0,0.156s0.91,0.14,1.32-0.36
				c0,0,0.688,0.791,1.625,0.829c0,0,1.321,0.313,2.246-0.194c0,0,0.19,0.319,1.414,0.648c0,0,0.573,0.25,1.077-0.337
				c0,0-0.145,0.389,0.992,0.391c0.728,0.001,0.979,0.001,1.064,0.001l0.842-1.746C9.624,9.094,0.49,8.861,0.49,8.861
				c0.403,2.934,0.936,4.87,1.347,6.042c0.622-0.051,1.737-0.2,2.221-0.629C4.058,14.271,4.634,15.299,5.963,15.455z"/>
		</g>
	</g>
</g>
<path d="M5.509,17.767c0,0,0.848,1.251,2.347,1.35c0,0,1.599-0.098,2.199-1.35c0,0,0.748,1.303,2,1.35
	c1.255,0.045,2.205-0.499,2.404-1.35c0,0,0.804,1.073,1.871,1.629c0.193-3.034,2.333-5.483,2.333-5.483
	c-2.787-1.903-8.367-3.55-8.367-3.55c-4.059,0.825-8.498,3.486-8.498,3.486c1.599,1.89,2.013,4.224,2.119,5.22
	C4.649,18.932,5.391,18.591,5.509,17.767z"/>
<path d="M13.531,4.435h-2.316V2.629h2.746V0.957H6.566v1.672h2.747v1.806H6.931c-1.989,0-3.602,1.612-3.602,3.602v2.953
	c0,0.334,0.06,0.649,0.146,0.957c1.663-0.852,4.294-2.047,6.788-2.554c0,0,3.817,1.128,6.714,2.596
	c0.091-0.319,0.156-0.649,0.156-0.999V8.036C17.133,6.047,15.521,4.435,13.531,4.435z M13.855,8.211H6.461V6.504h7.395V8.211z"/>
</svg>
