<?xml version="1.0" encoding="utf-8"?>
<!-- Generator: Adobe Illustrator 16.0.0, SVG Export Plug-In . SVG Version: 6.00 Build 0)  -->
<!DOCTYPE svg PUBLIC "-//W3C//DTD SVG 1.1//EN" "http://www.w3.org/Graphics/SVG/1.1/DTD/svg11.dtd">
<svg version="1.1" xmlns="http://www.w3.org/2000/svg" xmlns:xlink="http://www.w3.org/1999/xlink" x="0px" y="0px" width="20px"
	 height="20px" viewBox="0 0 20 20" enable-background="new 0 0 20 20" xml:space="preserve">
<g id="Layer_1" display="none">
	<polygon display="inline" fill="none" stroke="#000000" points="5.5,1.5 15.5,1.5 15.5,17.5 10.5,12.5 5.5,17.5 	"/>
</g>
<g id="Layer_2" display="none">
	<g display="inline">
		<g>
			<path d="M2.367,7.247c0-0.262,0.256-0.479,0.565-0.479h9.046c0.311,0,0.566,0.217,0.566,0.479v1.436h1.414
				c0.316,0,0.74,0.149,0.963,0.336l1.748,1.48c0.486,0.412,0.398,1.002,0.398,1.533v2.393c0.309,0,0.564,0.217,0.564,0.479
				c0,0.554-0.689,0.479-1.131,0.479h-0.564c0,1.055-1.016,1.914-2.262,1.914s-2.262-0.859-2.262-1.914H8.021
				c0,1.055-1.016,1.914-2.262,1.914s-2.262-0.859-2.262-1.914c-0.442,0-1.131,0.075-1.131-0.479V7.247z M4.628,15.382
				c0,0.523,0.512,0.957,1.131,0.957s1.131-0.434,1.131-0.957s-0.512-0.957-1.131-0.957S4.628,14.858,4.628,15.382z M15.938,11.554
				v-0.225c0-0.029-0.053-0.142-0.08-0.164l-1.723-1.458c-0.027-0.022-0.158-0.067-0.195-0.067h-1.395v1.914H15.938z M12.545,15.382
				c0,0.523,0.512,0.957,1.131,0.957c0.617,0,1.131-0.434,1.131-0.957s-0.514-0.957-1.131-0.957
				C13.057,14.425,12.545,14.858,12.545,15.382z"/>
		</g>
	</g>
</g>
<g id="Layer_3">
	<g>
		<g>
			<g>
				<polygon points="8.97,8.351 11.208,9.089 11.208,7.991 9.016,7.085 				"/>
				<polygon points="8.608,8.242 8.649,6.96 6.086,6.047 6.086,7.463 				"/>
				<polygon points="8.583,8.601 6.086,7.83 6.086,9.244 8.454,9.91 				"/>
				<polygon points="8.945,8.711 8.825,10.009 11.208,10.701 11.208,9.459 				"/>
			</g>
			<polygon points="5.767,5.763 5.767,9.089 1.284,8.711 1.284,6.992 			"/>
			<polygon points="16.011,11.313 14.091,10.113 14.091,10.99 16.011,12.066 			"/>
			<polygon points="13.972,10.01 11.528,8.711 11.528,9.83 13.882,10.918 			"/>
			<path d="M13.964,11.068l-2.33-1.058l0.055,0.795c1.23,0.475,1.502,0.673,2.254,0.992L13.964,11.068z"/>
			<path d="M16.091,12.207l-2-1.045v0.691c0.637,0.314,1.365,0.739,2.006,1.117L16.091,12.207z"/>
			<path d="M5.963,15.455c0,0,1.111-0.099,1.555-0.598c0,0,0.54,0.944,1.411,1.021c0.871,0.078,0,0.156,0,0.156s0.91,0.14,1.32-0.36
				c0,0,0.688,0.791,1.625,0.829c0,0,1.322,0.313,2.246-0.195c0,0,0.191,0.32,1.414,0.649c0,0,0.574,0.25,1.078-0.337
				c0,0-0.145,0.389,0.992,0.391c0.727,0.001,0.979,0.001,1.064,0.001l0.842-1.747C9.624,9.094,0.49,8.861,0.49,8.861
				c0.403,2.934,0.936,4.87,1.347,6.042c0.622-0.051,1.737-0.201,2.221-0.63C4.058,14.272,4.634,15.299,5.963,15.455z"/>
		</g>
	</g>
</g>
</svg>
