<?xml version="1.0" encoding="utf-8"?>
<!-- Generator: Adobe Illustrator 16.0.0, SVG Export Plug-In . SVG Version: 6.00 Build 0)  -->
<!DOCTYPE svg PUBLIC "-//W3C//DTD SVG 1.1//EN" "http://www.w3.org/Graphics/SVG/1.1/DTD/svg11.dtd">
<svg version="1.1" id="Layer_1" xmlns="http://www.w3.org/2000/svg" xmlns:xlink="http://www.w3.org/1999/xlink" x="0px" y="0px"
	 width="20px" height="20px" viewBox="0 0 20 20" enable-background="new 0 0 20 20" xml:space="preserve">
<g id="Layer_1_1_" display="none">
	<polygon display="inline" fill="none" stroke="#000000" points="5.5,1.5 15.5,1.5 15.5,17.5 10.5,12.5 5.5,17.5 	"/>
</g>
<g id="Layer_2" display="none">
	<g display="inline">
		<g>
			<path d="M2.367,7.247c0-0.262,0.256-0.479,0.565-0.479h9.046c0.311,0,0.563,0.217,0.563,0.479v1.436h1.414
				c0.313,0,0.738,0.149,0.963,0.336l1.748,1.48c0.482,0.412,0.396,1.002,0.396,1.533v2.393c0.312,0,0.563,0.218,0.563,0.479
				c0,0.554-0.688,0.479-1.131,0.479h-0.563c0,1.055-1.017,1.914-2.263,1.914s-2.262-0.859-2.262-1.914H8.021
				c0,1.055-1.016,1.914-2.262,1.914c-1.246,0-2.262-0.859-2.262-1.914c-0.442,0-1.131,0.075-1.131-0.479L2.367,7.247L2.367,7.247z
				 M4.628,15.382c0,0.523,0.512,0.957,1.131,0.957c0.619,0,1.131-0.434,1.131-0.957c0-0.522-0.512-0.957-1.131-0.957
				C5.14,14.425,4.628,14.857,4.628,15.382z M15.938,11.555v-0.226c0-0.029-0.053-0.142-0.08-0.164l-1.723-1.458
				c-0.027-0.022-0.158-0.067-0.195-0.067h-1.395v1.915H15.938z M12.545,15.382c0,0.523,0.512,0.957,1.131,0.957
				c0.617,0,1.131-0.434,1.131-0.957c0-0.522-0.514-0.957-1.131-0.957C13.057,14.425,12.545,14.857,12.545,15.382z"/>
		</g>
	</g>
</g>
<g id="Layer_6" display="none">
	<g display="inline">
		<g>
			<path fill="#999999" d="M12.583,14.014c0,0.354-0.194,0.674-0.5,0.84l-5.252,2.873c-0.142,0.082-0.299,0.119-0.455,0.119
				c-0.157,0-0.313-0.037-0.455-0.119l-5.252-2.873c-0.306-0.166-0.5-0.483-0.5-0.84V8.267c0-0.403,0.254-0.763,0.626-0.897
				l5.252-1.916c0.104-0.038,0.217-0.06,0.329-0.06S6.6,5.416,6.704,5.454l5.251,1.916c0.374,0.135,0.628,0.494,0.628,0.897V14.014z
				 M11.583,8.252l-5.208-1.9l-5.208,1.9l5.208,1.901L11.583,8.252z M11.628,14.014V9.255l-4.775,1.744v5.627L11.628,14.014z"/>
		</g>
	</g>
	
		<rect x="20.604" y="4" display="inline" fill="#FFFFFF" stroke="#999999" stroke-width="0.5" stroke-miterlimit="10" width="9.076" height="4.5"/>
	<g display="inline">
		<g>
			<rect x="26.5" y="8.5" fill="#FFFFFF" width="9" height="5"/>
			<rect x="27" y="9" fill="none" stroke="#999999" stroke-miterlimit="10" width="9" height="4"/>
		</g>
		<g>
			<g>
				<path fill="#B3B3B3" d="M30.684,11.381c0,0.344-0.07,0.604-0.213,0.785c-0.141,0.182-0.349,0.271-0.621,0.271
					c-0.27,0-0.477-0.088-0.619-0.271c-0.143-0.178-0.215-0.437-0.219-0.767v-0.45c0-0.347,0.071-0.607,0.217-0.787
					c0.145-0.178,0.352-0.268,0.617-0.268c0.271,0,0.479,0.088,0.618,0.266c0.142,0.178,0.216,0.432,0.22,0.764V11.381z
					 M30.191,10.881c0-0.205-0.027-0.355-0.084-0.448c-0.06-0.094-0.146-0.14-0.262-0.14s-0.201,0.044-0.259,0.133
					c-0.056,0.09-0.085,0.229-0.088,0.417v0.603c0,0.201,0.024,0.354,0.082,0.449c0.058,0.102,0.146,0.147,0.267,0.147
					c0.118,0,0.207-0.047,0.262-0.142c0.053-0.094,0.08-0.238,0.082-0.436V10.881L30.191,10.881z"/>
				<path fill="#B3B3B3" d="M32.048,10.406c0-0.152,0.052-0.275,0.147-0.369c0.1-0.096,0.229-0.143,0.388-0.143
					c0.162,0,0.292,0.047,0.392,0.141c0.103,0.094,0.146,0.219,0.146,0.38v0.122c0,0.152-0.048,0.275-0.146,0.368
					c-0.1,0.093-0.229,0.14-0.388,0.14c-0.161,0-0.291-0.047-0.39-0.14c-0.1-0.093-0.149-0.22-0.149-0.378V10.406z M32.374,10.539
					c0,0.068,0.021,0.123,0.06,0.164c0.039,0.042,0.09,0.063,0.153,0.063s0.113-0.021,0.149-0.063
					c0.039-0.042,0.058-0.1,0.058-0.169v-0.126c0-0.068-0.019-0.125-0.058-0.166c-0.036-0.042-0.088-0.063-0.153-0.063
					c-0.063,0-0.11,0.021-0.149,0.063c-0.039,0.04-0.06,0.099-0.06,0.173V10.539z M32.686,12.219l-0.242-0.13l1.209-1.933
					l0.24,0.129L32.686,12.219z M33.23,11.797c0-0.152,0.051-0.275,0.146-0.369c0.103-0.094,0.229-0.141,0.392-0.141
					c0.156,0,0.291,0.047,0.39,0.139c0.1,0.094,0.149,0.221,0.149,0.383v0.123c0,0.149-0.053,0.272-0.146,0.365
					c-0.098,0.096-0.227,0.141-0.391,0.141c-0.162,0-0.293-0.047-0.395-0.141s-0.146-0.219-0.146-0.374v-0.126H33.23z
					 M33.557,11.934c0,0.063,0.021,0.115,0.063,0.159c0.041,0.046,0.092,0.066,0.151,0.066c0.139,0,0.207-0.077,0.207-0.229v-0.132
					c0-0.067-0.021-0.122-0.06-0.164c-0.039-0.042-0.091-0.063-0.151-0.063c-0.063,0-0.113,0.021-0.151,0.063
					c-0.039,0.042-0.06,0.099-0.06,0.171V11.934L33.557,11.934z"/>
			</g>
		</g>
	</g>
	<path display="inline" fill="#FFFFFF" stroke="#999999" stroke-width="0.5" stroke-miterlimit="10" d="M13.623,9.434"/>
	<g display="inline">
		
			<rect x="9.665" y="-0.35" fill="#FFFFFF" stroke="#999999" stroke-width="0.5" stroke-miterlimit="10" width="8.591" height="5.839"/>
		
			<path fill="#FFFFFF" stroke="#999999" stroke-width="0.5" stroke-linecap="round" stroke-linejoin="round" stroke-miterlimit="10" d="
			M15.795,5.211c0,0-1.391,1.847-1.527,1.893l-1.306-1.903"/>
	</g>
	<path display="inline" fill="#FFFFFF" stroke="#999999" stroke-width="0.5" stroke-miterlimit="10" d="M11.719,8.5"/>
	<g display="inline">
		<g>
			<path fill="#B3B3B3" d="M13.402,2.943c0,0.343-0.071,0.604-0.213,0.785C13.049,3.91,12.841,4,12.566,4
				c-0.271,0-0.479-0.088-0.617-0.267C11.807,3.555,11.732,3.3,11.73,2.968V2.514c0-0.346,0.067-0.607,0.215-0.787
				c0.143-0.178,0.35-0.268,0.619-0.268c0.269,0,0.476,0.088,0.617,0.266c0.143,0.178,0.217,0.432,0.221,0.764V2.943L13.402,2.943z
				 M12.911,2.443c0-0.205-0.028-0.355-0.084-0.448c-0.058-0.094-0.144-0.14-0.263-0.14c-0.115,0-0.201,0.044-0.256,0.133
				c-0.059,0.089-0.084,0.229-0.088,0.417v0.603c0,0.201,0.024,0.351,0.079,0.449c0.058,0.098,0.146,0.147,0.267,0.147
				s0.207-0.047,0.262-0.141c0.053-0.095,0.08-0.239,0.083-0.433V2.443z"/>
			<path fill="#B3B3B3" d="M14.768,1.969c0-0.152,0.051-0.275,0.147-0.369c0.099-0.096,0.228-0.143,0.387-0.143
				c0.162,0,0.292,0.047,0.392,0.141c0.103,0.094,0.146,0.219,0.146,0.38V2.1c0,0.152-0.048,0.275-0.146,0.368
				c-0.1,0.093-0.229,0.14-0.387,0.14c-0.162,0-0.291-0.047-0.391-0.14c-0.1-0.093-0.148-0.22-0.148-0.378V1.969z M15.093,2.102
				c0,0.068,0.021,0.123,0.06,0.164c0.039,0.042,0.094,0.063,0.154,0.063c0.063,0,0.112-0.021,0.149-0.063
				c0.038-0.042,0.058-0.1,0.058-0.169V1.971c0-0.068-0.02-0.125-0.058-0.166c-0.037-0.042-0.089-0.063-0.154-0.063
				c-0.063,0-0.11,0.021-0.149,0.063c-0.039,0.04-0.06,0.099-0.06,0.173V2.102z M15.402,3.781l-0.24-0.13l1.209-1.933l0.238,0.129
				L15.402,3.781z M15.949,3.359c0-0.152,0.051-0.275,0.148-0.369c0.101-0.094,0.229-0.141,0.389-0.141s0.291,0.047,0.39,0.139
				c0.101,0.093,0.149,0.22,0.149,0.382v0.123c0,0.15-0.049,0.273-0.146,0.366C16.781,3.954,16.652,4,16.488,4
				c-0.162,0-0.293-0.047-0.391-0.141c-0.103-0.094-0.148-0.219-0.148-0.374V3.359z M16.273,3.495c0,0.062,0.021,0.116,0.063,0.16
				c0.041,0.045,0.094,0.066,0.15,0.066c0.14,0,0.207-0.077,0.207-0.23V3.36c0-0.068-0.021-0.122-0.057-0.164
				c-0.039-0.042-0.093-0.063-0.152-0.063c-0.063,0-0.113,0.021-0.152,0.063s-0.061,0.099-0.061,0.171v0.128H16.273z"/>
		</g>
	</g>
</g>
<g id="Layer_3" display="none">
	<g display="inline">
		<g>
			<g>
				<polygon points="8.97,8.351 11.208,9.089 11.208,7.991 9.016,7.085 				"/>
				<polygon points="8.608,8.242 8.649,6.96 6.086,6.047 6.086,7.463 				"/>
				<polygon points="8.583,8.601 6.086,7.83 6.086,9.244 8.454,9.91 				"/>
				<polygon points="8.945,8.711 8.825,10.009 11.208,10.701 11.208,9.459 				"/>
			</g>
			<polygon points="5.767,5.763 5.767,9.089 1.284,8.711 1.284,6.992 			"/>
			<polygon points="16.012,11.313 14.091,10.113 14.091,10.99 16.012,12.066 			"/>
			<polygon points="13.973,10.01 11.527,8.711 11.527,9.83 13.882,10.918 			"/>
			<path d="M13.964,11.068l-2.33-1.062l0.056,0.798c1.229,0.476,1.502,0.674,2.254,0.989L13.964,11.068z"/>
			<path d="M16.091,12.207l-2-1.045v0.691c0.638,0.313,1.365,0.735,2.007,1.113L16.091,12.207z"/>
			<path d="M5.963,15.455c0,0,1.111-0.1,1.555-0.598c0,0,0.54,0.94,1.411,1.021c0.871,0.078,0,0.156,0,0.156s0.91,0.14,1.32-0.36
				c0,0,0.688,0.791,1.625,0.829c0,0,1.321,0.313,2.246-0.194c0,0,0.19,0.319,1.414,0.648c0,0,0.573,0.25,1.077-0.337
				c0,0-0.146,0.389,0.992,0.391c0.728,0.001,0.979,0.001,1.063,0.001l0.842-1.746C9.624,9.094,0.49,8.861,0.49,8.861
				c0.403,2.934,0.936,4.87,1.347,6.042c0.622-0.051,1.737-0.197,2.221-0.629C4.058,14.271,4.634,15.299,5.963,15.455z"/>
		</g>
	</g>
</g>
<g id="Layer_4" display="none">
	<g display="inline">
		<g>
			<path d="M14.563,12.334l-0.443-3.646c0-0.321-0.271-0.91-0.592-0.91H5.23c-0.319,0-0.711,0.589-0.711,0.91v3.531
				c0.711-0.671,2.845-1.561,4.747-1.947C9.266,10.271,12.43,11.167,14.563,12.334z"/>
			<path d="M5.694,17.159c0,0,0.706,1.041,1.955,1.124c0,0,1.332-0.082,1.831-1.124c0,0,0.623,1.085,1.667,1.124
				c1.045,0.037,1.836-0.416,2.002-1.124c0,0,0.67,0.894,1.562,1.356c0.162-2.527,1.94-4.567,1.94-4.567
				c-2.318-1.585-6.966-2.957-6.966-2.957c-3.381,0.687-7.078,2.903-7.078,2.903c1.332,1.571,1.677,3.519,1.765,4.348
				C4.978,18.13,5.595,17.845,5.694,17.159z"/>
			<path d="M13.05,9.199H5.584V4.934h7.465L13.05,9.199L13.05,9.199z M7.006,7.422h4.977V6.355H7.006V7.422z"/>
			<rect x="9.138" y="2.447" width="1.066" height="2.843"/>
			<rect x="7.36" y="2.447" width="4.621" height="0.71"/>
		</g>
	</g>
</g>
<g id="Layer_5" display="none">
	<g display="inline">
		<g>
			<path d="M16.213,5.716v7.832c0,1.513-1.669,2.735-3.765,2.788l1.858,1.766c0.182,0.174,0.062,0.48-0.191,0.48h-9.23
				c-0.254,0-0.377-0.309-0.194-0.48l1.862-1.766c-2.098-0.053-3.767-1.275-3.767-2.788V5.716c0-1.547,1.757-2.798,3.916-2.798
				h5.595C14.455,2.918,16.213,4.168,16.213,5.716z M6.703,12.986c0-0.771-0.629-1.397-1.398-1.397c-0.77,0-1.399,0.631-1.399,1.397
				c0,0.771,0.629,1.396,1.399,1.396C6.073,14.387,6.703,13.757,6.703,12.986z M8.94,5.156H4.185v4.475H8.94V5.156z M15.096,5.156
				H10.06v4.475h5.036V5.156L15.096,5.156z M15.096,12.986c0-0.771-0.633-1.397-1.4-1.397c-0.771,0-1.396,0.631-1.396,1.397
				c0,0.771,0.627,1.396,1.396,1.396C14.463,14.387,15.096,13.757,15.096,12.986z"/>
		</g>
	</g>
</g>
<g>
	<g>
		<path d="M13.5,18.5h-13v-13h13V18.5z M1.5,17.5h11v-11h-11V17.5z"/>
	</g>
	<g>
		<polygon points="16.5,16.51 12.99,16.439 13.01,15.439 15.5,15.49 15.5,4.489 4.5,4.5 4.5,6.5 3.5,6.5 3.5,3.5 16.5,3.488 		"/>
	</g>
	<g>
		<polygon points="19.5,14.5 15.5,14.5 15.5,13.5 18.5,13.5 18.5,2.323 7.5,2.267 7.5,3.5 6.5,3.5 6.5,1.262 19.5,1.328 		"/>
	</g>
	<g>
		<path d="M10.754,12.572c0,0.293-0.238,0.531-0.532,0.531H7.918v2.305c0,0.293-0.238,0.531-0.532,0.531H6.323
			c-0.293,0-0.532-0.238-0.532-0.531v-2.305H3.487c-0.293,0-0.532-0.238-0.532-0.531v-1.064c0-0.293,0.238-0.531,0.532-0.531h2.304
			V8.672c0-0.293,0.238-0.532,0.532-0.532h1.063c0.293,0,0.532,0.238,0.532,0.532v2.304h2.304c0.293,0,0.532,0.238,0.532,0.531
			V12.572z"/>
	</g>
</g>
</svg>
