<?xml version="1.0" encoding="utf-8"?>
<!-- Generator: Adobe Illustrator 16.0.0, SVG Export Plug-In . SVG Version: 6.00 Build 0)  -->
<!DOCTYPE svg PUBLIC "-//W3C//DTD SVG 1.1//EN" "http://www.w3.org/Graphics/SVG/1.1/DTD/svg11.dtd">
<svg version="1.1" id="Layer_1" xmlns="http://www.w3.org/2000/svg" xmlns:xlink="http://www.w3.org/1999/xlink" x="0px" y="0px"
	 width="20px" height="20px" viewBox="0 0 20 20" enable-background="new 0 0 20 20" xml:space="preserve">
<g id="Layer_1_1_" display="none">
	<polygon display="inline" fill="none" stroke="#000000" points="5.5,1.5 15.5,1.5 15.5,17.5 10.5,12.5 5.5,17.5 	"/>
</g>
<g id="Layer_2" display="none">
	<g display="inline">
		<g>
			<path d="M2.367,7.247c0-0.262,0.256-0.479,0.565-0.479h9.046c0.311,0,0.565,0.217,0.565,0.479v1.436h1.414
				c0.315,0,0.74,0.149,0.963,0.336l1.748,1.48c0.485,0.412,0.397,1.002,0.397,1.533v2.393c0.31,0,0.564,0.218,0.564,0.479
				c0,0.554-0.689,0.479-1.131,0.479h-0.564c0,1.055-1.016,1.914-2.262,1.914s-2.262-0.859-2.262-1.914H8.021
				c0,1.055-1.016,1.914-2.262,1.914c-1.246,0-2.262-0.859-2.262-1.914c-0.442,0-1.131,0.075-1.131-0.479L2.367,7.247L2.367,7.247z
				 M4.628,15.382c0,0.523,0.512,0.957,1.131,0.957c0.619,0,1.131-0.434,1.131-0.957c0-0.522-0.512-0.957-1.131-0.957
				C5.14,14.425,4.628,14.857,4.628,15.382z M15.938,11.555v-0.226c0-0.029-0.053-0.142-0.08-0.164l-1.723-1.458
				c-0.027-0.022-0.158-0.067-0.195-0.067h-1.395v1.915H15.938z M12.545,15.382c0,0.523,0.512,0.957,1.131,0.957
				c0.617,0,1.131-0.434,1.131-0.957c0-0.522-0.514-0.957-1.131-0.957C13.057,14.425,12.545,14.857,12.545,15.382z"/>
		</g>
	</g>
</g>
<g id="Layer_3" display="none">
	<g display="inline">
		<g>
			<g>
				<polygon points="8.97,8.351 11.208,9.089 11.208,7.991 9.016,7.085 				"/>
				<polygon points="8.608,8.242 8.649,6.96 6.086,6.047 6.086,7.463 				"/>
				<polygon points="8.583,8.601 6.086,7.83 6.086,9.244 8.454,9.91 				"/>
				<polygon points="8.945,8.711 8.825,10.009 11.208,10.701 11.208,9.459 				"/>
			</g>
			<polygon points="5.767,5.763 5.767,9.089 1.284,8.711 1.284,6.992 			"/>
			<polygon points="16.012,11.313 14.091,10.113 14.091,10.99 16.012,12.066 			"/>
			<polygon points="13.973,10.01 11.527,8.711 11.527,9.83 13.882,10.918 			"/>
			<path d="M13.964,11.068l-2.33-1.059l0.056,0.795c1.229,0.476,1.502,0.674,2.254,0.992L13.964,11.068z"/>
			<path d="M16.091,12.207l-2-1.045v0.691c0.638,0.313,1.365,0.738,2.007,1.116L16.091,12.207z"/>
			<path d="M5.963,15.455c0,0,1.111-0.1,1.555-0.598c0,0,0.54,0.943,1.411,1.021c0.871,0.078,0,0.156,0,0.156s0.91,0.14,1.32-0.36
				c0,0,0.688,0.791,1.625,0.829c0,0,1.321,0.313,2.246-0.194c0,0,0.19,0.319,1.414,0.648c0,0,0.573,0.25,1.077-0.337
				c0,0-0.145,0.389,0.992,0.391c0.728,0.001,0.979,0.001,1.064,0.001l0.842-1.746C9.624,9.094,0.49,8.861,0.49,8.861
				c0.403,2.934,0.936,4.87,1.347,6.042c0.622-0.051,1.737-0.2,2.221-0.629C4.058,14.271,4.634,15.299,5.963,15.455z"/>
		</g>
	</g>
</g>
<g id="Layer_4" display="none">
	<g display="inline">
		<g>
			<path d="M14.563,12.334l-0.446-3.646c0-0.321-0.269-0.91-0.589-0.91H5.23c-0.319,0-0.711,0.589-0.711,0.91v3.531
				c0.711-0.671,2.845-1.561,4.747-1.947C9.266,10.271,12.43,11.167,14.563,12.334z"/>
			<path d="M5.694,17.159c0,0,0.706,1.041,1.955,1.124c0,0,1.332-0.082,1.831-1.124c0,0,0.623,1.085,1.667,1.124
				c1.045,0.037,1.836-0.416,2.002-1.124c0,0,0.67,0.894,1.559,1.356c0.162-2.527,1.943-4.567,1.943-4.567
				c-2.321-1.585-6.969-2.957-6.969-2.957c-3.381,0.687-7.078,2.903-7.078,2.903c1.332,1.574,1.677,3.519,1.765,4.348
				C4.978,18.13,5.595,17.845,5.694,17.159z"/>
			<path d="M13.05,9.199H5.584V4.934h7.465L13.05,9.199L13.05,9.199z M7.006,7.422h4.977V6.355H7.006V7.422z"/>
			<rect x="9.138" y="2.447" width="1.066" height="2.843"/>
			<rect x="7.36" y="2.447" width="4.621" height="0.71"/>
		</g>
	</g>
</g>
<g id="Layer_5">
	<g>
		<g>
			<path fill="none" stroke="#000000" stroke-miterlimit="10" d="M16.713,5.716v7.832c0,1.513-1.669,2.735-3.765,2.788l1.858,1.766
				c0.182,0.174,0.062,0.48-0.191,0.48h-9.23c-0.254,0-0.377-0.309-0.194-0.48l1.862-1.766c-2.098-0.053-3.767-1.275-3.767-2.788
				V5.716c0-1.547,1.757-2.798,3.916-2.798h5.595C14.955,2.918,16.713,4.168,16.713,5.716z M7.203,12.986
				c0-0.768-0.629-1.397-1.398-1.397c-0.77,0-1.399,0.631-1.399,1.397c0,0.771,0.629,1.399,1.399,1.399
				C6.573,14.387,7.203,13.757,7.203,12.986z M9.44,5.156H4.685v4.475H9.44V5.156z M15.596,5.156h-5.035v4.475h5.035V5.156z
				 M15.596,12.986c0-0.768-0.633-1.397-1.4-1.397c-0.771,0-1.396,0.631-1.396,1.397c0,0.771,0.627,1.399,1.396,1.399
				C14.963,14.387,15.596,13.757,15.596,12.986z"/>
		</g>
	</g>
</g>
</svg>
